# xmcd
#
# Track frame offsets:
#	150
#	15870
#	26874
#	39612
#	50571
#	61327
#	70503
#	83652
#	95019
#	107607
#	117228
#	135681
#	151993
#	163518
#	176009
#	186815
#	196359
#	206939
#	218564
#	227976
#
# Disc length: 3200 seconds
#
# Revision: 2
# Processed by: cddbd v1.5.2PL0 Copyright (c) Steve Scherf et al.
# Submitted via: audiograbber 1.83.01
#
DISCID=120c7e14
DTITLE=Country Legends - Country Legends
DYEAR=2004
DGENRE=Country
TTITLE0=Toby Keith - Should've Been A Cowboy
TTITLE1=Conway Twitty - Hello Darlin'
TTITLE2=Patsy Cline - I Fall To Pieces
TTITLE3=Roger Miller - King Of The Road
TTITLE4=Faron Young - Hello Walls
TTITLE5=Charley Pride - Kiss An Angel Good Mornin'
TTITLE6=Hank Williams - Hey Good Lookin'
TTITLE7=Ray Price - Crazy Arms
TTITLE8=Bill Anderson - Still
TTITLE9=Loretta Lynn - Don't Come Home A Drinkin'
TTITLE10=Don Williams - I Believe In You
TTITLE11=Cal Smith - Country Bumpkin
TTITLE12=Freddy Fender - Before The Next Teardrop Falls
TTITLE13=George Jones - White Lightning
TTITLE14=The Kendalls - Heaven's Just A Sin Away
TTITLE15=Tom T. Hall - I Love
TTITLE16=LeRoy Van Dyke - Walk On By
TTITLE17=Jack Greene - There Goes My Everything
TTITLE18=Webb Pierce - In The Jailhouse Now
TTITLE19=Hank Williams - Your Cheatin' Heart
EXTD=YEAR: 2004
EXTT0=
EXTT1=
EXTT2=
EXTT3=
EXTT4=
EXTT5=
EXTT6=
EXTT7=
EXTT8=
EXTT9=
EXTT10=
EXTT11=
EXTT12=
EXTT13=
EXTT14=
EXTT15=
EXTT16=
EXTT17=
EXTT18=
EXTT19=
PLAYORDER=
